<svg id="favorite-heart-outline-button" xmlns="http://www.w3.org/2000/svg" width="33.922" height="31.039" viewBox="0 0 33.922 31.039">
  <g id="favorite-outline" transform="translate(0 0)">
    <path id="Path_2" data-name="Path 2" d="M24.594,21.675a10.193,10.193,0,0,0-7.633,3.562,10.193,10.193,0,0,0-7.633-3.562A9.2,9.2,0,0,0,0,31c0,6.445,5.767,11.7,14.587,19.505l2.375,2.2,2.375-2.2C27.986,42.537,33.922,37.279,33.922,31A9.2,9.2,0,0,0,24.594,21.675ZM17.131,48.134h-.17l-.17-.17C8.65,40.671,3.392,35.922,3.392,31a5.8,5.8,0,0,1,5.936-5.936,6.889,6.889,0,0,1,6.106,4.071h3.223a6.466,6.466,0,0,1,5.936-4.071A5.8,5.8,0,0,1,30.53,31C30.53,35.922,25.272,40.671,17.131,48.134Z" transform="translate(0 -21.675)"/>
  </g>
</svg>
